<svg width="450" height="625" xmlns="http://www.w3.org/2000/svg" preserveAspectRatio="xMidYMid meet">
  <g>
    <path d="m73,254l-14,22l-8,28l-5,53l3,63l10,61l19,34l22,7l189,5l69,-9l28,-21l16,-72l0,-82l-8,-55l-17,-32l-21,-13l-65,-12l-145,2l-56,11l-17,10z" stroke-linecap="null" stroke-linejoin="null" stroke-width="3" fill="#f7db4d"/>
    <path d="m196.25,343.5l1.5,74.75l2,7.75l4.75,1l55.75,-42.75l0,-5.5l-59.25,-43l-4.75,7.75z" stroke-linecap="null" stroke-linejoin="null" stroke-width="3" fill="#ffffff"/>
    <g>
      <g fill="#292929" transform="translate(0,900) scale(0.10000000149011612,-0.10000000149011612) ">
        <path d="m3630,8933c-18,-23 -20,-36 -15,-71c5,-37 3,-47 -23,-80c-15,-20 -53,-77 -83,-125c-30,-48 -88,-143 -131,-210c-42,-67 -108,-174 -148,-237c-39,-63 -107,-171 -150,-240c-44,-69 -111,-177 -150,-240c-39,-63 -107,-171 -150,-240c-210,-331 -225,-359 -225,-421c-1,-59 -15,-89 -44,-89c-41,0 -54,46 -21,75c27,24 25,33 -7,41c-16,4 -39,14 -52,23c-19,12 -57,15 -190,15c-156,0 -169,-1 -210,-24l-44,-24l22,-17c28,-23 24,-53 -8,-57c-32,-5 -42,8 -45,60c-4,50 -34,100 -192,315c-49,66 -129,177 -179,246c-49,69 -142,197 -205,285c-63,87 -151,209 -195,271c-44,62 -128,177 -187,257c-97,132 -107,149 -105,186c1,29 -4,44 -18,54c-47,34 -115,2 -115,-55c0,-37 23,-61 59,-61c25,0 38,-14 108,-117c80,-119 106,-156 246,-358c42,-60 83,-118 89,-129c7,-10 20,-28 29,-40c22,-30 116,-166 180,-261c30,-44 56,-82 59,-85c8,-8 50,-68 125,-180c39,-58 84,-124 101,-146c16,-23 36,-52 44,-64c32,-48 84,-115 92,-118c16,-7 8,-49 -13,-68c-11,-10 -26,-33 -34,-50l-13,-31l-168,-1c-358,-3 -848,-69 -1009,-136c-128,-54 -232,-117 -302,-183c-41,-39 -115,-140 -137,-188c-11,-22 -24,-49 -29,-60c-6,-11 -14,-33 -18,-50c-4,-16 -12,-43 -18,-60c-21,-63 -49,-224 -88,-510c-26,-189 -25,-957 0,-1190c21,-186 42,-331 63,-430c8,-38 14,-79 14,-90c0,-18 12,-61 42,-150c5,-16 13,-43 17,-60c23,-92 98,-212 176,-283c85,-78 167,-116 309,-142c27,-5 51,-12 54,-15c3,-3 0,-21 -7,-41c-14,-39 -37,-204 -47,-336c-7,-95 7,-138 46,-138c32,0 98,109 177,290c9,19 22,48 29,63c8,16 14,37 14,47c0,10 4,21 9,25c5,3 13,19 16,36c7,30 9,31 48,26c356,-43 1276,-62 1777,-37c113,5 261,10 330,10c69,0 154,5 190,11c36,5 90,12 120,16l55,5l18,-36c9,-20 17,-43 17,-51c0,-7 6,-26 14,-42c7,-15 20,-44 29,-63c29,-68 83,-176 115,-232c35,-61 69,-81 97,-58c18,15 21,156 6,255c-5,33 -14,93 -20,134c-7,41 -17,81 -23,89c-10,11 -8,17 7,28c10,8 29,14 41,14c32,0 139,29 193,52c70,30 145,83 188,133c34,40 54,74 119,208c8,16 14,38 14,50c1,12 7,33 15,47c8,14 14,39 15,57c0,17 5,44 11,60c7,15 15,60 19,98c4,39 12,102 18,140c33,206 62,633 62,910c0,244 -27,581 -61,765c-6,30 -14,82 -19,115c-4,33 -13,73 -19,88c-6,16 -11,41 -11,56c0,15 -7,36 -15,47c-8,10 -15,28 -15,39c0,11 -7,33 -15,49c-8,15 -15,35 -15,43c0,8 -6,27 -14,41c-7,15 -28,56 -45,91c-46,91 -103,164 -166,212c-61,46 -122,79 -145,79c-9,0 -21,5 -28,12c-6,6 -30,15 -54,19c-62,12 -144,29 -215,45c-34,8 -77,14 -95,14c-18,0 -78,7 -133,15c-177,26 -416,45 -570,45l-150,0l-33,52c-18,28 -30,56 -27,62c3,6 13,23 23,38c26,41 314,519 330,548c7,14 22,39 32,55c11,17 24,39 30,50c13,24 27,46 63,103c15,23 37,59 48,80c11,20 29,51 40,67c10,17 23,39 29,50c6,11 19,34 30,50c11,17 24,39 30,50c6,11 19,34 30,50c11,17 24,39 29,50c5,11 20,36 33,55c13,19 27,42 31,50c4,8 16,29 27,45c11,17 23,37 27,45c4,8 19,33 34,55c15,22 35,56 46,75c10,19 32,55 47,80c16,24 45,75 64,112c32,63 36,68 67,68c27,0 37,6 55,35c22,36 19,55 -18,98c-24,27 -77,22 -102,-10zm72,-48c0,-5 -5,-11 -11,-13c-6,-2 -11,4 -11,13c0,9 5,15 11,13c6,-2 11,-8 11,-13zm-1374,-1805c6,0 12,-7 12,-15c0,-10 11,-15 33,-16l32,-1l-38,-17c-36,-17 -115,-20 -247,-8c-30,2 -39,31 -13,42c23,10 161,24 188,19c11,-2 26,-4 33,-4zm107,-150c121,-9 160,-16 201,-35c42,-20 79,-26 195,-35c408,-29 534,-42 739,-76c193,-31 351,-86 435,-149c60,-47 130,-146 175,-250c57,-133 70,-175 110,-350c5,-22 23,-146 41,-275c29,-224 31,-250 30,-570c0,-184 -2,-360 -5,-390c-2,-30 -9,-118 -15,-195c-7,-77 -16,-156 -20,-175c-5,-19 -12,-75 -15,-125c-8,-116 -51,-339 -83,-435c-23,-66 -40,-101 -90,-185c-7,-11 -16,-27 -20,-35c-22,-44 -114,-100 -240,-146c-97,-35 -138,-59 -200,-117c-28,-27 -36,-29 -74,-23c-23,4 -55,18 -71,31c-33,28 -99,40 -168,31l-48,-6l5,39c5,33 1,42 -21,62c-43,37 -34,50 32,49c73,-2 126,4 232,24c47,10 105,21 130,26c69,13 180,61 235,102c84,61 132,131 182,268c42,114 73,332 55,380c-10,24 -10,24 -15,-10c-24,-156 -46,-262 -58,-274c-5,-6 -9,-17 -9,-25c0,-9 -7,-29 -15,-45c-8,-15 -15,-33 -15,-38c0,-19 -81,-145 -112,-174c-48,-45 -124,-88 -198,-112c-121,-40 -172,-52 -214,-52c-22,0 -57,-5 -76,-10c-19,-6 -93,-15 -165,-20c-71,-6 -165,-14 -208,-19c-43,-5 -153,-9 -245,-10c-92,-1 -223,-6 -292,-12c-151,-11 -889,-10 -1050,2c-63,5 -185,13 -270,19c-190,12 -320,27 -340,39c-9,5 -30,12 -48,15c-63,14 -153,67 -211,124c-56,55 -131,165 -131,193c0,8 -7,23 -15,33c-8,11 -15,29 -15,40c0,12 -7,30 -15,40c-8,11 -15,30 -15,42c0,29 -10,54 -21,54c-17,0 -9,-65 21,-169c16,-57 36,-111 45,-121c8,-9 15,-23 15,-30c0,-16 44,-83 80,-120c74,-77 220,-150 345,-172c109,-19 340,-39 530,-47c339,-14 1204,-2 1313,19c48,9 62,-2 37,-30c-9,-10 -18,-38 -19,-62l-2,-43l-345,1c-189,1 -481,5 -649,8c-276,6 -372,10 -525,22c-27,2 -95,4 -150,3c-91,0 -103,-2 -140,-27c-22,-15 -53,-32 -70,-38c-22,-8 -30,-17 -30,-35c0,-13 -11,-42 -24,-64l-25,-40l-7,44c-7,34 -5,50 8,72c9,16 15,30 12,32c-2,2 -29,23 -60,48c-36,29 -91,58 -159,84c-95,36 -111,47 -176,111c-44,43 -83,93 -102,130c-35,70 -83,218 -106,329c-10,44 -23,107 -31,140c-7,33 -18,110 -25,170c-60,582 -64,1017 -16,1425c36,295 58,398 113,522c76,174 165,264 354,355c103,50 200,78 375,109c141,24 545,64 655,64c90,0 176,15 198,34c17,14 87,34 136,38c97,9 321,8 450,-2zm795,-3382c0,-7 -7,-22 -15,-32c-17,-23 -19,-59 -5,-87c9,-17 7,-19 -18,-19c-16,0 -43,-3 -60,-6l-30,-6l0,46c1,31 -5,52 -17,66c-43,48 -100,5 -93,-70l4,-40l-52,0c-50,0 -50,0 -46,29c3,19 -2,34 -16,47c-10,11 -22,29 -25,42c-5,21 -2,22 51,23c32,1 104,5 162,9c58,3 117,7 133,8c16,1 27,-3 27,-10zm435,-225c0,-12 3,-25 8,-29c10,-11 9,-44 -2,-44c-30,0 -49,48 -35,85c9,22 29,13 29,-12z"/>
        <path d="m1745,6729c-44,-4 -149,-12 -233,-18c-84,-6 -157,-13 -161,-15c-5,-3 -50,-10 -100,-16c-92,-10 -104,-13 -264,-50c-223,-53 -382,-156 -474,-306c-17,-27 -34,-61 -38,-75c-4,-13 -11,-28 -15,-34c-4,-5 -11,-26 -15,-45c-4,-19 -12,-40 -17,-47c-5,-6 -8,-24 -6,-40c4,-25 5,-26 12,-8c4,11 16,38 26,60c10,22 28,61 39,87c35,81 145,215 170,207c6,-2 -8,-26 -30,-54c-22,-27 -44,-59 -50,-70c-5,-11 -13,-27 -17,-35c-28,-50 -42,-84 -42,-103c0,-12 -7,-31 -15,-41c-8,-11 -15,-29 -15,-40c0,-12 -6,-52 -14,-91c-77,-367 -90,-913 -35,-1365c6,-47 14,-115 18,-151c5,-36 13,-88 19,-115c25,-112 33,-151 43,-194c5,-24 14,-49 19,-54c6,-6 10,-19 10,-31c0,-12 7,-30 15,-41c8,-10 15,-25 15,-32c0,-19 69,-113 109,-149c43,-39 134,-85 211,-106c73,-21 258,-45 400,-52c63,-3 162,-10 220,-15c139,-12 1276,-12 1410,0c58,6 155,12 215,15c114,6 307,29 385,46c25,6 61,14 80,18c102,23 237,130 283,224c45,95 67,160 78,227c4,25 12,72 17,105c27,152 35,218 43,330c4,66 13,170 18,230c12,137 13,482 1,595c-5,47 -14,135 -19,195c-6,61 -15,126 -21,145c-5,19 -10,48 -10,65c0,37 -28,158 -46,203c-8,18 -14,43 -14,56c0,13 -7,29 -15,36c-8,7 -15,19 -15,27c0,21 -52,130 -84,178c-32,48 -115,126 -161,153c-18,10 -18,11 -2,12c33,0 114,-49 161,-98c42,-44 136,-189 136,-210c0,-4 9,-27 20,-49c11,-23 30,-73 42,-112c12,-39 26,-71 31,-71c19,0 -20,177 -44,205c-5,5 -9,18 -9,28c0,10 -6,31 -14,45c-7,15 -24,50 -36,77c-61,132 -175,228 -320,268c-113,31 -189,47 -227,47c-21,0 -54,5 -73,10c-19,6 -91,15 -160,20c-69,6 -172,14 -230,19c-122,12 -1087,12 -1205,0zm1250,-102c268,-27 402,-47 535,-84c56,-15 132,-46 153,-63c112,-88 148,-145 214,-340c36,-109 59,-230 83,-440c30,-265 25,-664 -14,-980c-3,-25 -11,-92 -17,-150c-6,-58 -19,-139 -29,-180c-10,-41 -24,-102 -30,-135c-33,-169 -118,-306 -226,-363c-46,-24 -228,-62 -369,-76c-318,-32 -544,-41 -1065,-40c-486,0 -656,6 -985,34c-284,24 -415,64 -499,153c-41,44 -116,183 -116,216c0,11 -4,22 -9,25c-5,3 -11,23 -14,43c-2,21 -7,47 -10,58c-29,108 -57,248 -67,330c-6,55 -15,132 -21,170c-24,178 -29,660 -7,870c6,61 11,119 11,130c0,33 35,235 51,300c37,142 109,249 232,345c24,18 141,69 204,87c62,19 161,40 300,62c64,11 380,38 515,45c185,9 1039,-4 1180,-17z"/>
        <path d="m1968,5633c-69,-73 -73,-87 -73,-288c0,-222 10,-429 25,-504c10,-46 19,-63 53,-94c36,-33 47,-37 73,-32c39,7 100,39 179,94c33,22 84,57 113,77c30,19 66,46 80,60c15,14 43,34 62,44c48,25 134,118 150,160c11,32 10,40 -8,76c-23,46 -86,113 -136,146c-46,30 -230,169 -283,213c-23,19 -45,35 -51,35c-5,0 -31,11 -58,25c-66,33 -84,32 -126,-12zm86,-56c31,-32 239,-193 301,-231c16,-11 34,-23 40,-28c38,-32 121,-88 145,-98c16,-6 31,-18 34,-26c7,-18 -3,-44 -17,-44c-25,0 -428,-292 -503,-365c-20,-19 -41,-35 -47,-35c-9,0 -11,108 -10,427c1,236 2,429 3,431c2,11 27,-4 54,-31z"/>
      </g>
    </g>
  </g>
</svg>